<svg id="paratrooper" xmlns="http://www.w3.org/2000/svg" width="256" height="330" viewBox="0 0 256 330">
  <g id="cloud">
    <ellipse id="Ellipse_10" data-name="Ellipse 10" cx="60" cy="57" rx="60" ry="57" transform="translate(0 41)" fill="#e7f2f8"/>
    <ellipse id="Ellipse_11" data-name="Ellipse 11" cx="60" cy="57" rx="60" ry="57" transform="translate(136 48)" fill="#e7f2f8"/>
    <ellipse id="Ellipse_12" data-name="Ellipse 12" cx="75.5" cy="73" rx="75.5" ry="73" transform="translate(60)" fill="#e7f2f8"/>
  </g>
  <line id="Line_46" data-name="Line 46" x2="40" y2="96" transform="translate(53 153)" fill="none" stroke="#e7f2f8" stroke-width="5"/>
  <line id="Line_47" data-name="Line 47" x1="40" y2="96" transform="translate(149 153)" fill="none" stroke="#e7f2f8" stroke-width="5"/>
  <line id="Line_48" data-name="Line 48" y2="120" transform="translate(122 145)" fill="none" stroke="#e7f2f8" stroke-width="4"/>
  <g id="doll" transform="translate(87 229)">
    <circle id="Ellipse_19" data-name="Ellipse 19" cx="12.5" cy="12.5" r="12.5" transform="translate(22)"/>
    <line id="Line_41" data-name="Line 41" y2="56" transform="translate(35 13)" fill="none" stroke="#000" stroke-width="8"/>
    <line id="Line_42" data-name="Line 42" x1="12" y2="43" transform="translate(22 56)" fill="none" stroke="#000" stroke-width="5"/>
    <line id="Line_43" data-name="Line 43" x1="12" y1="43" transform="translate(36 55)" fill="none" stroke="#000" stroke-width="5"/>
    <line id="Line_44" data-name="Line 44" x1="32" y1="24" transform="translate(1 14)" fill="none" stroke="#000" stroke-width="3"/>
    <line id="Line_45" data-name="Line 45" y1="24" x2="32" transform="translate(38 13)" fill="none" stroke="#000" stroke-width="3"/>
    <ellipse id="Ellipse_20" data-name="Ellipse 20" cx="10" cy="20" rx="10" ry="20" transform="translate(25 28)"/>
    <circle id="Ellipse_21" data-name="Ellipse 21" cx="5" cy="5" r="5" transform="translate(0 11)"/>
    <circle id="Ellipse_22" data-name="Ellipse 22" cx="5" cy="5" r="5" transform="translate(60 11)"/>
    <ellipse id="Ellipse_23" data-name="Ellipse 23" cx="6" cy="4" rx="6" ry="4" transform="translate(16 93)"/>
    <ellipse id="Ellipse_24" data-name="Ellipse 24" cx="6" cy="4" rx="6" ry="4" transform="translate(42 93)"/>
    <g id="doll-2" data-name="doll">
      <circle id="Ellipse_19-2" data-name="Ellipse 19" cx="12.5" cy="12.5" r="12.5" transform="translate(22)"/>
      <line id="Line_41-2" data-name="Line 41" y2="56" transform="translate(35 13)" fill="none" stroke="#000" stroke-width="8"/>
      <line id="Line_42-2" data-name="Line 42" x1="12" y2="43" transform="translate(22 56)" fill="none" stroke="#000" stroke-width="5"/>
      <line id="Line_43-2" data-name="Line 43" x1="12" y1="43" transform="translate(36 55)" fill="none" stroke="#000" stroke-width="5"/>
      <line id="Line_44-2" data-name="Line 44" x1="32" y1="24" transform="translate(1 14)" fill="none" stroke="#000" stroke-width="3"/>
      <line id="Line_45-2" data-name="Line 45" y1="24" x2="32" transform="translate(38 13)" fill="none" stroke="#000" stroke-width="3"/>
      <ellipse id="Ellipse_20-2" data-name="Ellipse 20" cx="10" cy="20" rx="10" ry="20" transform="translate(25 28)"/>
      <circle id="Ellipse_21-2" data-name="Ellipse 21" cx="5" cy="5" r="5" transform="translate(0 11)"/>
      <circle id="Ellipse_22-2" data-name="Ellipse 22" cx="5" cy="5" r="5" transform="translate(60 11)"/>
      <ellipse id="Ellipse_23-2" data-name="Ellipse 23" cx="6" cy="4" rx="6" ry="4" transform="translate(16 93)"/>
      <ellipse id="Ellipse_24-2" data-name="Ellipse 24" cx="6" cy="4" rx="6" ry="4" transform="translate(42 93)"/>
    </g>
  </g>
</svg>
