<svg id="skater" xmlns="http://www.w3.org/2000/svg" width="57.397" height="111" viewBox="0 0 57.397 111">
  <circle id="Ellipse_19" data-name="Ellipse 19" cx="12.5" cy="12.5" r="12.5" transform="translate(4.5)"/>
  <line id="Line_41" data-name="Line 41" y2="56" transform="translate(17.5 13)" fill="none" stroke="#000" stroke-width="8"/>
  <line id="Line_42" data-name="Line 42" x1="2" y2="42" transform="translate(14.5 56)" fill="none" stroke="#000" stroke-width="5"/>
  <line id="Line_43" data-name="Line 43" x1="12" y1="43" transform="translate(18.5 55)" fill="none" stroke="#000" stroke-width="5"/>
  <line id="Line_44" data-name="Line 44" x2="34" y2="13" transform="translate(14.5 37)" fill="none" stroke="#000" stroke-width="3"/>
  <line id="Line_45" data-name="Line 45" x2="21" y2="2" transform="translate(20.5 37)" fill="none" stroke="#000" stroke-width="3"/>
  <ellipse id="Ellipse_20" data-name="Ellipse 20" cx="10" cy="20" rx="10" ry="20" transform="translate(7.5 28)"/>
  <circle id="Ellipse_21" data-name="Ellipse 21" cx="5" cy="5" r="5" transform="translate(46.5 45)"/>
  <circle id="Ellipse_22" data-name="Ellipse 22" cx="5" cy="5" r="5" transform="translate(38.5 34)"/>
  <ellipse id="Ellipse_23" data-name="Ellipse 23" cx="6" cy="4" rx="6" ry="4" transform="translate(10.5 93)"/>
  <ellipse id="Ellipse_24" data-name="Ellipse 24" cx="6" cy="4" rx="6" ry="4" transform="translate(26.5 93)"/>
  <line id="Line_49" data-name="Line 49" x2="48" transform="translate(0 100.5)" fill="none" stroke="#000" stroke-width="4"/>
  <circle id="Ellipse_34" data-name="Ellipse 34" cx="4.5" cy="4.5" r="4.5" transform="translate(6.5 102)"/>
  <circle id="Ellipse_35" data-name="Ellipse 35" cx="4.5" cy="4.5" r="4.5" transform="translate(35.5 102)"/>
  <line id="Line_50" data-name="Line 50" y1="60" transform="translate(46 40.5)" fill="none" stroke="#000" stroke-width="3"/>
  <line id="Line_51" data-name="Line 51" x2="16" y2="22" transform="translate(40 33.5)" fill="none" stroke="#000" stroke-linecap="round" stroke-width="2"/>
</svg>
